<?xml version="1.0" standalone="no"?>
<!DOCTYPE svg PUBLIC "-//W3C//DTD SVG 20010904//EN"
 "http://www.w3.org/TR/2001/REC-SVG-20010904/DTD/svg10.dtd">
<svg version="1.0" xmlns="http://www.w3.org/2000/svg"
 width="404.000000pt" height="404.000000pt" viewBox="0 0 404.000000 404.000000"
 preserveAspectRatio="xMidYMid meet">

<g transform="translate(0.000000,404.000000) scale(0.100000,-0.100000)"
fill="#000000" stroke="none">
<path d="M2006 3814 c-9 -8 -16 -29 -16 -45 0 -26 -3 -29 -35 -29 -45 0 -55
-20 -55 -109 l0 -71 -33 0 c-48 0 -57 -15 -57 -97 l0 -73 -29 0 c-58 0 -61
-16 -61 -298 0 -155 4 -261 10 -273 6 -11 21 -19 36 -19 19 0 25 -5 22 -17 -2
-10 -12 -19 -23 -21 -32 -6 -45 -22 -45 -53 0 -24 -4 -29 -23 -29 -29 0 -67
-39 -67 -68 0 -16 -6 -22 -23 -22 -29 0 -67 -39 -67 -68 0 -17 -6 -22 -24 -22
-33 0 -56 -25 -56 -61 0 -25 -4 -29 -29 -29 -38 0 -61 -23 -61 -61 0 -25 -4
-29 -29 -29 -38 0 -61 -23 -61 -61 0 -25 -4 -29 -28 -29 -62 0 -62 3 -62 -428
0 -430 -1 -422 61 -422 l29 0 0 -295 c0 -282 1 -296 20 -315 11 -11 31 -20 45
-20 21 0 25 -5 25 -28 0 -37 17 -52 57 -52 31 0 33 -2 33 -33 0 -40 15 -57 52
-57 24 0 28 -4 28 -28 0 -35 27 -62 63 -62 23 0 27 -4 27 -29 0 -51 28 -61
165 -61 89 0 126 4 141 14 18 14 19 33 22 497 2 440 1 483 -14 500 -15 17 -34
19 -165 19 -81 0 -154 3 -163 6 -9 4 -16 18 -16 33 0 31 -16 51 -41 51 -25 0
-34 19 -12 27 33 11 53 36 53 65 l0 28 105 0 105 0 0 -28 c0 -35 27 -62 63
-62 23 0 27 -4 27 -29 0 -34 30 -61 67 -61 19 0 23 -6 23 -28 0 -39 17 -52 70
-52 53 0 70 13 70 52 0 22 4 28 23 28 37 0 67 27 67 61 0 25 4 29 28 29 35 0
62 27 62 63 l0 27 105 0 105 0 0 -28 c0 -29 20 -54 53 -65 22 -8 13 -27 -12
-27 -25 0 -41 -20 -41 -51 0 -15 -7 -29 -16 -33 -9 -3 -82 -6 -163 -6 -131 0
-150 -2 -165 -19 -15 -17 -16 -60 -14 -500 3 -464 4 -483 22 -497 15 -10 52
-14 141 -14 137 0 165 10 165 61 0 25 4 29 28 29 35 0 62 27 62 63 0 23 4 27
28 27 37 0 52 17 52 57 0 31 2 33 33 33 40 0 57 15 57 52 0 23 4 28 25 28 14
0 34 9 45 20 19 19 20 33 20 315 l0 295 29 0 c62 0 61 -8 61 424 0 368 -1 394
-18 409 -10 10 -31 17 -45 17 -23 0 -27 4 -27 29 0 38 -23 61 -61 61 -25 0
-29 4 -29 29 0 38 -23 61 -61 61 -25 0 -29 4 -29 29 0 36 -23 61 -56 61 -18 0
-24 5 -24 23 0 29 -39 67 -68 67 -16 0 -22 6 -22 23 0 29 -39 67 -68 67 -18 0
-22 6 -22 29 0 31 -13 47 -45 53 -11 2 -21 11 -23 21 -3 12 3 17 22 17 15 0
30 8 36 19 6 12 10 118 10 275 0 243 -1 257 -20 276 -11 11 -31 20 -45 20 -24
0 -25 2 -25 73 0 82 -9 97 -57 97 l-33 0 0 71 c0 89 -10 109 -55 109 -33 0
-35 2 -35 35 0 24 -6 37 -19 45 -29 15 -87 12 -105 -6z m-78 -1211 c3 -42 3
-42 45 -45 37 -3 42 -6 43 -28 3 -61 2 -60 44 -60 42 0 41 -1 44 60 1 22 6 25
43 28 42 3 42 3 45 45 l3 42 68 3 c48 2 73 -1 89 -13 13 -8 35 -15 50 -15 23
0 28 -4 28 -25 0 -32 33 -65 65 -65 19 0 25 -5 25 -21 0 -39 19 -59 55 -59 33
0 35 -2 35 -33 0 -42 15 -57 57 -57 31 0 33 -2 33 -33 0 -42 15 -57 57 -57 31
0 33 -2 33 -33 0 -42 15 -57 57 -57 l33 0 0 -375 0 -375 -33 0 c-18 0 -38 -5
-45 -12 -9 -9 -12 -92 -12 -310 l0 -298 -27 0 c-36 0 -63 -27 -63 -62 0 -24
-4 -28 -27 -28 -36 0 -63 -27 -63 -62 0 -24 -4 -28 -27 -28 -36 0 -63 -27 -63
-62 0 -24 -4 -28 -27 -28 -36 0 -63 -27 -63 -62 l0 -28 -105 0 -105 0 0 465 0
465 156 0 c88 0 164 4 175 10 13 8 19 21 19 45 0 33 2 35 33 35 43 0 57 15 57
64 0 48 -23 76 -62 76 -24 0 -28 4 -28 29 0 50 -28 61 -159 61 -128 0 -151
-10 -151 -62 0 -24 -4 -28 -27 -28 -36 0 -63 -27 -63 -62 0 -24 -4 -28 -27
-28 -36 0 -63 -27 -63 -62 0 -21 -5 -28 -20 -28 -15 0 -20 7 -20 27 0 36 -27
63 -62 63 -24 0 -28 4 -28 27 0 36 -27 63 -62 63 -24 0 -28 4 -28 27 0 54 -21
63 -149 63 -133 0 -161 -11 -161 -61 0 -25 -4 -29 -27 -29 -41 0 -63 -26 -63
-75 0 -50 13 -65 57 -65 31 0 33 -2 33 -35 0 -24 6 -37 19 -45 11 -6 87 -10
175 -10 l156 0 0 -465 0 -465 -105 0 -105 0 0 27 c0 36 -27 63 -62 63 -24 0
-28 4 -28 27 0 36 -27 63 -62 63 -24 0 -28 4 -28 27 0 36 -27 63 -62 63 -24 0
-28 4 -28 27 0 36 -27 63 -62 63 l-28 0 0 298 c0 218 -3 301 -12 310 -7 7 -27
12 -45 12 l-33 0 0 375 0 375 33 0 c42 0 57 15 57 57 0 31 2 33 33 33 18 0 38
5 45 12 7 7 12 27 12 45 0 31 2 33 33 33 18 0 38 5 45 12 7 7 12 27 12 45 0
31 2 33 35 33 36 0 55 20 55 59 0 16 6 21 25 21 32 0 65 33 65 65 0 21 5 25
28 25 16 0 37 7 48 15 13 11 39 14 89 12 l70 -2 3 -42z"/>
</g>
</svg>
